Coordinates
version=1
nRows=38
nColumns=12
inDegrees=yes

Units are S.I. units (second, meters, Newtons, ...)
Angles are in degrees

endheader
time	SC_y	SC_z	SC_x	AC_y	AC_z	AC_x	GH_y	GH_z	GH_yy	EL_x	PS_y
       0.0              -56.24          7.204          43.93          50.44          5.607         -14.64          17.39          27.19         -116.5          57.89          133.3
   0.01928              -56.24          7.203          43.93          50.44          5.606         -14.64          17.36           27.2         -116.5          57.88          133.3
   0.03855              -56.23          7.203          43.93          50.44          5.605         -14.64          17.34          27.21         -116.5          57.87          133.3
   0.05783              -56.23          7.202          43.93          50.44          5.604         -14.63           17.3          27.22         -116.4          57.86          133.3
   0.07711              -56.22          7.201          43.93          50.44          5.603         -14.63          17.27          27.23         -116.4          57.85          133.2
   0.09638              -56.22            7.2          43.93          50.44          5.602         -14.63          17.24          27.24         -116.4          57.84          133.2
    0.1157              -56.21          7.199          43.93          50.44          5.601         -14.63           17.2          27.25         -116.4          57.83          133.2
    0.1349              -56.21          7.198          43.93          50.43            5.6         -14.62          17.16          27.27         -116.4          57.82          133.2
    0.1542               -56.2          7.196          43.94          50.43          5.599         -14.62          17.12          27.28         -116.4          57.81          133.2
    0.1735              -56.19          7.195          43.94          50.43          5.597         -14.62          17.07           27.3         -116.3           57.8          133.2
    0.1928              -56.19          7.194          43.94          50.43          5.596         -14.62          17.02          27.31         -116.3          57.79          133.2
     0.212              -56.18          7.192          43.94          50.43          5.594         -14.61          16.97          27.33         -116.3          57.77          133.2
    0.2313              -56.17           7.19          43.94          50.43          5.593         -14.61          16.91          27.35         -116.3          57.76          133.2
    0.2506              -56.16          7.189          43.94          50.43          5.591          -14.6          16.85          27.37         -116.3          57.74          133.2
    0.2699              -56.15          7.187          43.94          50.43          5.589          -14.6          16.78          27.39         -116.2          57.72          133.2
    0.2892              -56.14          7.185          43.95          50.42          5.587          -14.6          16.71          27.42         -116.2          57.71          133.2
    0.3084              -56.13          7.182          43.95          50.42          5.585         -14.59          16.63          27.44         -116.2          57.69          133.2
    0.3277              -56.12           7.18          43.95          50.42          5.582         -14.59          16.54          27.47         -116.1          57.66          133.1
     0.347               -56.1          7.177          43.95          50.42           5.58         -14.58          16.45           27.5         -116.1          57.64          133.1
    0.3663              -56.09          7.174          43.96          50.42          5.577         -14.57          16.35          27.54         -116.0          57.61          133.1
    0.3855              -56.07          7.171          43.96          50.41          5.573         -14.57          16.23          27.57         -116.0          57.58          133.1
    0.4048              -56.05          7.168          43.96          50.41           5.57         -14.56          16.11          27.62         -115.9          57.55          133.1
    0.4241              -56.03          7.164          43.97          50.41          5.566         -14.55          15.97          27.66         -115.9          57.51          133.1
    0.4434              -56.01          7.159          43.97           50.4          5.561         -14.54          15.82          27.71         -115.8          57.47          133.0
    0.4626              -55.99          7.155          43.98           50.4          5.557         -14.53          15.65          27.77         -115.7          57.43          133.0
    0.4819              -55.96          7.149          43.98          50.39          5.551         -14.52          15.46          27.83         -115.7          57.38          133.0
    0.5012              -55.93          7.143          43.99          50.39          5.545         -14.51          15.25           27.9         -115.6          57.32          133.0
    0.5205              -55.89          7.136           44.0          50.38          5.538         -14.49          15.01          27.98         -115.5          57.26          132.9
    0.5398              -55.85          7.129           44.0          50.38          5.531         -14.47          14.75          28.07         -115.4          57.19          132.9
     0.559              -55.81           7.12          44.01          50.37          5.522         -14.45          14.44          28.17         -115.2          57.11          132.8
    0.5783              -55.76           7.11          44.02          50.36          5.512         -14.43          14.09          28.28         -115.1          57.02          132.8
    0.5976               -55.7          7.099          44.03          50.35            5.5         -14.41          13.69          28.42         -114.9          56.91          132.7
    0.6169              -55.63          7.086          44.05          50.34          5.487         -14.38          13.23          28.57         -114.7          56.79          132.7
    0.6361              -55.56           7.07          44.06          50.33          5.472         -14.35           12.7          28.75         -114.5          56.65          132.6
    0.6554              -55.46          7.053          44.08          50.31          5.454         -14.31          12.07          28.96         -114.2          56.49          132.5
    0.6747              -55.36          7.032           44.1          50.29          5.432         -14.26          11.33           29.2         -113.9          56.29          132.4
     0.694              -55.23          7.007          44.13          50.27          5.407         -14.21          10.45          29.49         -113.5          56.06          132.3
    0.7132              -55.07          6.977          44.16          50.25          5.377         -14.14          9.397          29.84         -113.1          55.78          132.1
